<svg width="97" height="106" viewBox="0 0 97 106" fill="none" xmlns="http://www.w3.org/2000/svg">
<path d="M63.9249 19.7429H54.6469C50.2596 19.7429 46.13 21.7988 43.4748 25.2931L35.0899 36.3332C33.9391 35.5182 32.902 34.5229 32.0272 33.3722L9.65324 3.89597C8.61612 2.52939 9.58724 0.569336 11.3016 0.569336H42.4079C46.7952 0.569336 50.9306 2.62524 53.5857 6.11949L63.9249 19.7429Z" fill="#A230ED"/>
<path d="M87.4021 23.0698L65.0281 52.546C62.3788 56.0402 58.2434 58.0899 53.8503 58.0899H22.7498C21.0354 58.0899 20.0648 56.1361 21.0957 54.7695L35.0905 36.3334C37.434 37.9996 40.263 38.9168 43.2057 38.9168H74.3061C76.0205 38.9168 76.9974 36.963 75.9603 35.5964L63.9255 19.7432H85.7537C87.4681 19.7432 88.4387 21.7032 87.4021 23.0698Z" fill="#6E47FF"/>
<path d="M74.3055 38.9168H43.205C40.2623 38.9168 37.4333 37.9996 35.0898 36.3334L43.4748 25.2933C46.1299 21.7991 50.2595 19.7432 54.6469 19.7432H63.9249L75.9597 35.5959C76.9968 36.9625 76.0199 38.9168 74.3055 38.9168Z" fill="#6B00D7"/>
<path d="M12.3142 94.1104L8.51982 88.6713C8.36059 88.6891 8.12174 88.698 7.80379 88.698H3.61132V94.1109H0.162109V75.5381H7.80327C9.4129 75.5381 10.8146 75.8031 12.0083 76.3337C13.2026 76.8643 14.1176 77.6254 14.7546 78.6159C15.391 79.6064 15.7095 80.7829 15.7095 82.1447C15.7095 83.5422 15.369 84.7449 14.6881 85.7532C14.0066 86.7615 13.0297 87.5137 11.7564 88.0087L16.0279 94.1114H12.3142V94.1104ZM11.0665 79.411C10.2882 78.7741 9.14733 78.4556 7.64403 78.4556H3.61079V85.8585H7.64403C9.14681 85.8585 10.2882 85.5363 11.0665 84.89C11.8449 84.2441 12.2341 83.329 12.2341 82.1437C12.2341 80.9594 11.8449 80.048 11.0665 79.411Z" fill="white"/>
<path d="M34.2505 87.1042L26.105 89.8107L24.2743 94.1089H20.7188L29.0765 75.5361H32.4728L40.8572 94.1089H37.2488L34.2505 87.1042ZM34.2505 87.1042L30.7484 78.9853L27.273 87.1042H34.2505Z" fill="white"/>
<path d="M57.7188 76.3318C58.9131 76.8624 59.8281 77.6235 60.4651 78.614C61.1015 79.6045 61.42 80.7809 61.42 82.1428C61.42 83.4874 61.1015 84.6591 60.4651 85.6585C59.8281 86.6579 58.9125 87.4232 57.7188 87.9538C56.5251 88.4844 55.1229 88.7494 53.5138 88.7494H49.3213V94.1089H45.8721V75.5361H53.5132C55.1234 75.5361 56.5251 75.8012 57.7188 76.3318ZM56.777 84.8754C57.5554 84.2385 57.9446 83.3276 57.9446 82.1423C57.9446 80.9574 57.5554 80.046 56.777 79.4091C55.9987 78.7722 54.8578 78.4537 53.3545 78.4537H49.3213V85.8298H53.3545C54.8578 85.8308 55.9987 85.5124 56.777 84.8754Z" fill="white"/>
<path d="M67.5234 75.5361H70.9726V94.1089H67.5234V75.5361Z" fill="white"/>
<path d="M78.6396 75.5361H86.7585C88.7395 75.5361 90.4995 75.9211 92.0389 76.6901C93.5778 77.4595 94.7716 78.5474 95.6212 79.9533C96.4697 81.3597 96.8945 82.983 96.8945 84.822C96.8945 86.6621 96.4697 88.2843 95.6212 89.6907C94.7716 91.0971 93.5783 92.185 92.0389 92.954C90.5 93.7234 88.7395 94.1084 86.7585 94.1084H78.6396V75.5361ZM86.5993 91.1903C87.9617 91.1903 89.1596 90.93 90.1946 90.4078C91.2291 89.8861 92.0253 89.1433 92.5826 88.179C93.1399 87.2152 93.4186 86.0964 93.4186 84.8225C93.4186 83.5492 93.1399 82.4304 92.5826 81.466C92.0253 80.5023 91.2291 79.7595 90.1946 79.2373C89.1596 78.7161 87.9617 78.4542 86.5993 78.4542H82.0889V91.1898H86.5993V91.1903Z" fill="white"/>
<path d="M0.162109 99.0791H1.04471V105.256H0.162109V99.0791Z" fill="white"/>
<path d="M12.6204 99.0791V105.256H11.8971L8.19119 100.65V105.256H7.30859V99.0791H8.03196L11.7378 103.685V99.0791H12.6204Z" fill="white"/>
<path d="M24.1966 99.0791V105.256H23.4732L19.7674 100.65V105.256H18.8848V99.0791H19.6087L23.3145 103.685V99.0791H24.1966Z" fill="white"/>
<path d="M31.5644 104.916C31.0642 104.642 30.6719 104.264 30.3869 103.782C30.1015 103.3 29.959 102.762 29.959 102.167C29.959 101.573 30.1015 101.035 30.3869 100.552C30.6719 100.07 31.0647 99.6919 31.5644 99.4185C32.0647 99.145 32.6262 99.0078 33.2495 99.0078C33.867 99.0078 34.4259 99.1445 34.9262 99.4185C35.4264 99.6919 35.8171 100.069 36.1 100.548C36.3823 101.028 36.5232 101.567 36.5232 102.167C36.5232 102.767 36.3823 103.307 36.1 103.786C35.8177 104.265 35.4264 104.642 34.9262 104.915C34.4259 105.189 33.8676 105.326 33.2495 105.326C32.6262 105.326 32.0641 105.19 31.5644 104.916ZM34.4715 104.232C34.8334 104.026 35.1184 103.742 35.3274 103.381C35.5359 103.019 35.6406 102.615 35.6406 102.168C35.6406 101.721 35.5359 101.316 35.3274 100.955C35.1184 100.593 34.8334 100.309 34.4715 100.104C34.1096 99.8977 33.7026 99.7946 33.2495 99.7946C32.7964 99.7946 32.3863 99.8972 32.0186 100.104C31.6509 100.309 31.3628 100.593 31.1538 100.955C30.9448 101.317 30.8405 101.721 30.8405 102.168C30.8405 102.615 30.9448 103.019 31.1538 103.381C31.3622 103.743 31.6509 104.027 32.0186 104.232C32.3863 104.439 32.7964 104.541 33.2495 104.541C33.7026 104.541 34.1101 104.438 34.4715 104.232Z" fill="white"/>
<path d="M47.456 99.0791L44.747 105.256H43.8733L41.1553 99.0791H42.1086L44.3321 104.153L46.5734 99.0791H47.456Z" fill="white"/>
<path d="M56.3942 103.712H53.1116L52.4322 105.256H51.5234L54.3205 99.0791H55.1942L58.0002 105.256H57.0736L56.3942 103.712ZM56.0852 103.006L54.7527 99.9795L53.4206 103.006H56.0852Z" fill="white"/>
<path d="M64.2476 99.847H62.1299V99.0791H67.2385V99.847H65.1208V105.256H64.2471V99.847H64.2476Z" fill="white"/>
<path d="M72.6113 99.0791H73.4939V105.256H72.6113V99.0791Z" fill="white"/>
<path d="M80.8618 104.916C80.3616 104.642 79.9693 104.264 79.6838 103.782C79.3983 103.3 79.2559 102.762 79.2559 102.167C79.2559 101.573 79.3983 101.035 79.6838 100.552C79.9693 100.07 80.3616 99.6919 80.8618 99.4185C81.3621 99.145 81.9236 99.0078 82.5469 99.0078C83.1644 99.0078 83.7233 99.1445 84.2236 99.4185C84.7233 99.6919 85.1145 100.069 85.3969 100.548C85.6792 101.028 85.8206 101.567 85.8206 102.167C85.8206 102.767 85.6792 103.307 85.3969 103.786C85.1145 104.265 84.7233 104.642 84.2236 104.915C83.7233 105.189 83.165 105.326 82.5469 105.326C81.923 105.326 81.3615 105.19 80.8618 104.916ZM83.7689 104.232C84.1308 104.026 84.4158 103.742 84.6248 103.381C84.8333 103.019 84.938 102.615 84.938 102.168C84.938 101.721 84.8338 101.316 84.6248 100.955C84.4158 100.593 84.1308 100.309 83.7689 100.104C83.407 99.8977 83 99.7946 82.5469 99.7946C82.0943 99.7946 81.6837 99.8972 81.316 100.104C80.9483 100.309 80.6602 100.593 80.4512 100.955C80.2427 101.317 80.1379 101.721 80.1379 102.168C80.1379 102.615 80.2422 103.019 80.4512 103.381C80.6596 103.743 80.9483 104.027 81.316 104.232C81.6837 104.439 82.0938 104.541 82.5469 104.541C83 104.541 83.407 104.438 83.7689 104.232Z" fill="white"/>
<path d="M96.8939 99.0791V105.256H96.1705L92.4646 100.65V105.256H91.582V99.0791H92.3059L96.0118 103.685V99.0791H96.8939Z" fill="white"/>
</svg>
