<svg width="40" height="41" viewBox="0 0 40 41" fill="none" xmlns="http://www.w3.org/2000/svg">
<g clip-path="url(#clip0)">
<path d="M19.9046 0.887451C9.22685 0.887451 0.571289 9.56167 0.571289 20.2625C0.571289 30.9632 9.22685 39.6375 19.9046 39.6375C30.5824 39.6375 39.238 30.9632 39.238 20.2625C39.238 9.56167 30.5824 0.887451 19.9046 0.887451ZM36.7215 20.6882L33.3834 19.8515C33.2298 19.8125 33.0981 19.721 33.0131 19.5914L31.6122 17.4843C31.5443 17.3814 31.5081 17.2608 31.5081 17.1375C31.5081 17.0141 31.5443 16.8935 31.6122 16.7906L33.1394 14.4945C33.2002 14.4039 33.2805 14.3312 33.3779 14.2835L35.2466 13.3468C36.2 15.4601 36.7433 17.7968 36.7433 20.2625C36.7433 20.4062 36.7254 20.5453 36.7215 20.6882ZM3.06591 20.2625C3.06591 19.3312 3.16102 18.4242 3.3068 17.5335C3.86497 18.3617 4.43874 19.2101 4.85892 19.8273C5.31731 20.5046 5.85755 21.125 6.52564 21.7289C7.36134 22.4859 8.28435 23.1218 9.26661 23.6164C10.3432 24.1609 11.9218 25.0187 13.0304 25.6343C13.4225 25.8531 13.6688 26.2718 13.6688 26.7257V29.2273C13.6688 30.2281 14.0586 31.171 14.7649 31.8789C15.7519 32.8679 16.2391 34.3531 16.1635 34.9992V36.7031C8.67492 34.9914 3.06591 28.2773 3.06591 20.2625ZM18.6511 37.0742L18.6448 35.1648C18.8397 33.7132 17.9089 31.4945 16.5275 30.1109C16.296 29.8781 16.1619 29.5554 16.1619 29.2273V26.7257C16.1619 25.3609 15.4237 24.1046 14.2348 23.4468C13.1044 22.8195 11.4915 21.9414 10.3884 21.3835C9.60417 20.989 8.86591 20.4804 8.13234 19.8171C7.67431 19.4009 7.26714 18.9318 6.91933 18.4195C6.16626 17.3109 4.92831 15.4726 4.15965 14.3296C6.18497 8.94917 10.8624 4.86558 16.5985 3.71636L20.6359 7.76245L19.4642 8.93667C18.7602 9.64214 18.736 10.775 19.3909 11.5101L18.945 11.5125C18.4577 11.5125 17.9947 11.7007 17.6415 12.0437L16.869 12.7968C16.2796 13.3671 16.1307 14.2445 16.4987 14.9804L16.8105 15.6039C16.2695 15.389 15.6583 15.3601 15.0931 15.5523L12.6616 16.364C12.2279 16.5086 11.8507 16.7864 11.5836 17.1581C11.3164 17.5297 11.1729 17.9763 11.1734 18.4343C11.1734 19.2671 11.6342 20.0148 12.3771 20.3875L13.2416 20.821C14.0773 21.2398 15.005 21.4757 15.9405 21.5085C16.126 21.6882 16.4277 22.0992 16.618 22.3593C17.0787 22.9906 17.5145 23.5875 18.0991 23.8804L18.3626 24.0125H23.8609C24.1899 24.0125 24.5111 24.1453 24.7426 24.3789L25.8099 25.4484C26.0211 25.6619 26.1401 25.9501 26.1412 26.2507C26.1412 26.8796 25.8855 27.4945 25.4349 27.9429L24.5509 28.8281C24.1671 29.2156 23.8916 29.6973 23.7518 30.225L23.6645 30.5695C23.5912 30.8578 23.521 31.146 23.4158 31.4289L21.3281 37.0671C20.858 37.107 20.3856 37.139 19.9054 37.139C19.4813 37.1375 19.0666 37.1046 18.6511 37.0742ZM24.172 36.5671L25.7514 32.3007C25.8902 31.9335 25.9876 31.5562 26.0827 31.1789L26.163 30.8624C26.1895 30.7601 26.2456 30.6632 26.4819 30.4265L27.1983 29.7109C28.1119 28.8015 28.6358 27.539 28.6358 26.2492C28.6358 25.2921 28.2484 24.3562 27.574 23.6796L26.5068 22.6101C25.8099 21.9117 24.8455 21.5117 23.8609 21.5117H19.1102C18.9613 21.3375 18.7719 21.075 18.63 20.882C17.99 20.0062 17.2634 19.0125 16.1627 19.0125C15.539 19.0125 14.9154 18.8648 14.3572 18.5851L14.1748 18.4937L15.8828 17.9234L16.6063 18.5531C16.9477 18.8484 17.3812 19.0125 17.8317 19.0125H18.273C18.9263 19.0125 19.5203 18.6804 19.8641 18.1226C20.2079 17.5664 20.2391 16.8835 19.9467 16.2992L18.9356 14.2718L19.1991 14.0132H19.6474C20.1471 14.0132 20.6172 13.8179 20.9703 13.464L21.594 12.839C22.2979 12.1335 22.3221 11.0007 21.6672 10.2656L22.4008 9.53042C22.8709 9.05776 23.132 8.43042 23.132 7.76323C23.132 7.09605 22.8717 6.46792 22.4008 5.99605L19.8041 3.3937C19.8384 3.3937 19.8719 3.38823 19.9062 3.38823C25.841 3.38823 31.0571 6.48823 34.0569 11.15L32.2655 12.0476C31.7805 12.2907 31.3673 12.6564 31.0665 13.1085L29.5393 15.4046C28.8377 16.4578 28.8377 17.8179 29.5393 18.8718L30.9402 20.9789C31.3713 21.6257 32.0223 22.0859 32.7792 22.2765L36.4728 23.2015C35.3253 29.6976 30.467 34.9101 24.172 36.5671Z" fill="#96E6F9"/>
</g>
<defs>
<clipPath id="clip0">
<rect width="38.6667" height="40" fill="white" transform="translate(0.571289 0.262451)"/>
</clipPath>
</defs>
</svg>
