<svg width="51" height="41" viewBox="0 0 51 41" fill="none" xmlns="http://www.w3.org/2000/svg">
<g clip-path="url(#clip0)">
<path d="M21.0749 21.9539L21.9553 21.0703C22.1982 20.8265 22.1982 20.4304 21.9553 20.1867L18.2944 16.5125L21.9553 12.8382C22.1982 12.5945 22.1982 12.1984 21.9553 11.9546L21.0749 11.071C20.8321 10.8273 20.4374 10.8273 20.1945 11.071L15.2127 16.071C14.9699 16.3148 14.9699 16.7109 15.2127 16.9546L20.1945 21.9546C20.4382 22.1984 20.8321 22.1984 21.0749 21.9539ZM28.5476 21.0703L29.428 21.9539C29.6709 22.1976 30.0655 22.1976 30.3084 21.9539L35.2902 16.9539C35.5331 16.7101 35.5331 16.314 35.2902 16.0703L30.3084 11.0703C30.0655 10.8265 29.6709 10.8265 29.428 11.0703L28.5476 11.9539C28.3048 12.1976 28.3048 12.5937 28.5476 12.8375L32.2093 16.5125L28.5484 20.1867C28.4905 20.2446 28.4446 20.3134 28.4132 20.3892C28.3819 20.465 28.3657 20.5462 28.3656 20.6283C28.3655 20.7104 28.3816 20.7916 28.4128 20.8675C28.444 20.9433 28.4899 21.0122 28.5476 21.0703ZM48.9155 29.0125H45.1791V7.76245C45.1791 5.00464 42.9435 2.76245 40.1973 2.76245H10.3064C7.56018 2.76245 5.32459 5.00464 5.32459 7.76245V29.0125H1.58823C0.900114 29.0125 0.342773 29.5718 0.342773 30.2625V34.0125C0.342773 37.4585 3.13571 40.2625 6.57005 40.2625H43.9337C47.368 40.2625 50.161 37.4585 50.161 34.0125V30.2625C50.161 29.5718 49.6036 29.0125 48.9155 29.0125ZM7.8155 7.76245C7.8155 6.38198 8.93096 5.26245 10.3064 5.26245H40.1973C41.5728 5.26245 42.6882 6.38198 42.6882 7.76245V29.0125H30.7887C30.4727 29.0125 30.2422 29.257 30.1722 29.5664C29.9208 30.6804 28.9283 31.5125 27.7428 31.5125H22.761C21.5754 31.5125 20.583 30.6804 20.3315 29.5664C20.2615 29.257 20.0311 29.0125 19.715 29.0125H7.8155V7.76245ZM47.67 34.0125C47.67 36.0804 45.9941 37.7625 43.9337 37.7625H6.57005C4.5096 37.7625 2.83368 36.0804 2.83368 34.0125V31.5125H17.9932C18.5062 32.9671 19.891 34.0125 21.5155 34.0125H28.9882C30.6135 34.0125 31.9976 32.9671 32.5105 31.5125H47.67V34.0125Z" fill="#96E6F9"/>
</g>
<defs>
<clipPath id="clip0">
<rect width="49.8182" height="40" fill="white" transform="translate(0.342773 0.262451)"/>
</clipPath>
</defs>
</svg>
