<svg width="42" height="41" viewBox="0 0 42 41" fill="none" xmlns="http://www.w3.org/2000/svg">
<path d="M19.4365 0.50592L2.90107 6.7067C1.41448 7.26318 0.428711 8.69413 0.428711 10.2841V28.1789C0.428711 29.6257 1.24753 30.9454 2.53539 31.5893L19.0708 39.857C20.144 40.3976 21.408 40.3976 22.4812 39.857L39.0166 31.5893C40.3124 30.9454 41.1233 29.6178 41.1233 28.1789V10.2841C41.1233 8.69413 40.1375 7.27113 38.6509 6.71465L22.1155 0.51387C21.257 0.179982 20.303 0.179982 19.4365 0.50592ZM20.78 2.72389L38.5873 9.40165V9.4255L20.78 17.1447L2.97262 9.4255V9.40165L20.78 2.72389ZM2.97262 12.2L19.508 19.3626V37.2257L2.97262 28.958V12.2ZM22.0519 37.2257V19.3626L38.5873 12.2V28.9659L22.0519 37.2257Z" fill="#96E6F9"/>
</svg>
