<svg width="1579" height="1502" viewBox="0 0 1579 1502" fill="none" xmlns="http://www.w3.org/2000/svg">
<g filter="url(#filter0_d)">
<path d="M534.757 881.988L534.761 881.991C578.995 913.442 632.398 930.756 687.953 930.756H1281.7C1311.97 930.756 1329.18 896.271 1310.89 872.17L1081.13 569.52L1083.52 567.706L1081.13 569.52L883.744 309.431C833.62 243.466 755.553 204.656 672.733 204.656H78.8726C48.6296 204.656 31.4875 239.232 49.7922 263.352C49.7922 263.353 49.7923 263.353 49.7923 263.353L476.941 826.091L534.757 881.988ZM534.757 881.988C513.033 866.603 493.455 847.816 476.942 826.092L534.757 881.988Z" stroke="#A230ED" stroke-width="6"/>
</g>
<g filter="url(#filter1_d)">
<path d="M1102.18 1192.14L1102.18 1192.14L1529.33 629.403C1547.63 605.282 1530.49 570.706 1500.25 570.706H1083.52L906.392 570.706C823.574 570.706 745.616 609.515 695.491 675.481L1102.18 1192.14ZM1102.18 1192.14C1052.17 1258.1 974.107 1296.8 891.172 1296.8H297.422C267.176 1296.8 250.049 1262.34 268.232 1238.22M1102.18 1192.14L268.232 1238.22M268.232 1238.22C268.234 1238.22 268.236 1238.22 268.237 1238.21L535.412 886.251L535.412 886.25L695.491 675.481L268.232 1238.22Z" stroke="#6B00D7" stroke-width="6"/>
</g>
<defs>
<filter id="filter0_d" x="0.256836" y="162.656" width="1360.15" height="810.1" filterUnits="userSpaceOnUse" color-interpolation-filters="sRGB">
<feFlood flood-opacity="0" result="BackgroundImageFix"/>
<feColorMatrix in="SourceAlpha" type="matrix" values="0 0 0 0 0 0 0 0 0 0 0 0 0 0 0 0 0 0 127 0"/>
<feOffset/>
<feGaussianBlur stdDeviation="19.5"/>
<feColorMatrix type="matrix" values="0 0 0 0 0.635294 0 0 0 0 0.188235 0 0 0 0 0.929412 0 0 0 1 0"/>
<feBlend mode="normal" in2="BackgroundImageFix" result="effect1_dropShadow"/>
<feBlend mode="normal" in="SourceGraphic" in2="effect1_dropShadow" result="shape"/>
</filter>
<filter id="filter1_d" x="218.771" y="528.706" width="1360.09" height="810.09" filterUnits="userSpaceOnUse" color-interpolation-filters="sRGB">
<feFlood flood-opacity="0" result="BackgroundImageFix"/>
<feColorMatrix in="SourceAlpha" type="matrix" values="0 0 0 0 0 0 0 0 0 0 0 0 0 0 0 0 0 0 127 0"/>
<feOffset/>
<feGaussianBlur stdDeviation="19.5"/>
<feColorMatrix type="matrix" values="0 0 0 0 0.431373 0 0 0 0 0.278431 0 0 0 0 1 0 0 0 1 0"/>
<feBlend mode="normal" in2="BackgroundImageFix" result="effect1_dropShadow"/>
<feBlend mode="normal" in="SourceGraphic" in2="effect1_dropShadow" result="shape"/>
</filter>
</defs>
</svg>
